#!OML:ASF H:\IndianDance\Patient Classification 1\Patient 1\Session 1\dancer.ASF
:FULLY-SPECIFIED
:DEGREES
3376
root -2.18017 14.3956 7.40733 -175.507 16.7987 -538.777
lowerback 6.18749 2.42938 -2.1769
upperback -4.74221 3.05668 -1.50374
thorax -8.50586 1.62216 -0.78858
lowerneck -10.5535 -12.5033 -11.2831
upperneck 10.1473 -17.2141 16.4836
head 7.31504 -7.49071 5.23985
rclavicle 8.12781e-014 1.74931e-014
rhumerus 18.4135 52.9487 -15.9814
rradius 98.9745
rwrist 1.5623
rhand -34.8315 33.7545
rfingers 7.12502
rthumb -7.98212 3.92525
lclavicle 8.12781e-014 1.74931e-014
lhumerus 18.0629 -41.7243 4.41159
lradius 95.9297
lwrist 39.1518
lhand -21.1779 -324.124
lfingers 7.12502
lthumb 5.20256 1505.79
rfemur -48.8951 -25.382 32.1522
rtibia 77.2467
rfoot -2.45671 8.71257
rtoes -6.52918
lfemur -27.4954 15.9015 -9.86253
ltibia 61.3498
lfoot -17.7071 -0.959869
ltoes -24.3988
3377
root -2.15474 14.3543 7.40763 -175.722 17.4549 -538.988
lowerback 6.3738 2.4807 -2.47043
upperback -4.67543 3.08722 -1.47684
thorax -8.56188 1.65212 -0.607991
lowerneck -10.0942 -12.6919 -11.4385
upperneck 9.75523 -17.4726 16.7315
head 7.18763 -7.64091 5.32818
rclavicle 1.16041e-014 -2.54444e-014
rhumerus 18.1448 54.1664 -16.4565
rradius 100.347
rwrist 2.34798
rhand -34.3993 35.9668
rfingers 7.12502
rthumb -7.565 6.12212
lclavicle 1.16041e-014 -2.54444e-014
lhumerus 18.3152 -43.6736 3.85084
lradius 97.9344
lwrist 36.281
lhand -23.0161 -325.449
lfingers 7.12502
lthumb 3.42758 1504.5
rfemur -49.2415 -24.8655 31.2681
rtibia 78.4418
rfoot -3.45619 6.14162
rtoes -7.63352
lfemur -27.0096 16.3509 -9.89567
ltibia 61.3381
lfoot -18.1995 -0.518211
ltoes -24.5196
3378
root -2.12728 14.3194 7.40671 -175.889 17.9833 -539.366
lowerback 6.43893 2.48247 -2.88685
upperback -4.64633 3.04438 -1.49186
thorax -8.59157 1.65512 -0.388628
lowerneck -9.58435 -12.8564 -11.5824
upperneck 9.38152 -17.7052 16.9959
head 7.05588 -7.77923 5.42766
rclavicle -2.02512e-014 1.51076e-014
rhumerus 17.8417 55.4976 -17.0622
rradius 101.559
rwrist 3.6377
rhand -34.3066 37.9174
rfingers 7.12502
rthumb -7.4755 8.0695
lclavicle -2.02512e-014 1.51076e-014
lhumerus 18.3734 -45.3514 3.3199
lradius 99.7544
lwrist 32.7024
lhand -23.2284 -328.964
lfingers 7.12502
lthumb 3.22256 1500.99
rfemur -49.5088 -24.2819 30.0491
rtibia 79.4102
rfoot -4.61223 2.48943
rtoes -5.05926
lfemur -26.6679 16.9034 -10.1534
ltibia 61.3154
lfoot -18.6503 -0.241058
ltoes -23.8515
3379
root -2.09025 14.2911 7.40604 -175.987 18.4365 -539.591
lowerback 6.45359 2.48283 -3.21416
upperback -4.62363 3.01181 -1.48543
thorax -8.59451 1.65859 -0.195218
lowerneck -9.22469 -13.0653 -11.6962
upperneck 9.1871 -18.0104 17.2162
head 7.01175 -7.93817 5.4884
rclavicle -1.3418e-015 -2.78299e-014
rhumerus 17.2661 56.9139 -17.97
rradius 102.575
rwrist 5.64706
rhand -34.7325 39.5643
rfingers 7.12502
rthumb -7.88655 9.7314
lclavicle -1.3418e-015 -2.78299e-014
lhumerus 18.6019 -47.4127 2.85233
lradius 101.781
lwrist 30.2077
lhand -24.0939 -331.841
lfingers 7.12502
lthumb 2.38671 1498.13
rfemur -49.5113 -23.4475 28.7515
rtibia 79.9488
rfoot -6.38338 -1.45112
rtoes -2.58711
lfemur -26.3837 17.5298 -10.2177
ltibia 61.2716
lfoot -19.0019 -0.335717
ltoes -21.5588
3380
root -2.04881 14.2718 7.40304 -175.993 18.6606 -539.739
lowerback 6.36329 2.41827 -3.42543
upperback -4.60797 2.91148 -1.44048
thorax -8.53632 1.62344 -0.010995
lowerneck -8.94572 -13.3076 -11.9615
upperneck 9.15221 -18.3662 17.4717
head 7.05935 -8.11411 5.56885
rclavicle -1.35671e-014 -2.06736e-014
rhumerus 16.4791 58.2729 -19.1599
rradius 103.27
rwrist 7.73197
rhand -35.2222 41.118
rfingers 7.12502
rthumb -8.35926 11.3034
lclavicle -1.35671e-014 -2.06736e-014
lhumerus 18.8215 -49.3803 2.59576
lradius 103.471
lwrist 27.4277
lhand -24.3968 -336.125
lfingers 7.12502
lthumb 2.09417 1493.84
rfemur -49.3005 -22.4929 27.2956
rtibia 79.9432
rfoot -8.14568 -4.31225
rtoes -3.33431
lfemur -26.2231 17.928 -10.2025
ltibia 61.2027
lfoot -19.1744 0.00605998
ltoes -22.3247
3381
root -2.0008 14.2567 7.39927 -176.027 18.6488 -539.9
lowerback 6.29412 2.26279 -3.5952
upperback -4.59802 2.69208 -1.41025
thorax -8.48855 1.52752 0.149815
lowerneck -8.67889 -13.5164 -12.2659
upperneck 9.19149 -18.6818 17.7269
head 7.13221 -8.26902 5.65975
rclavicle 3.6477e-014 8.74653e-015
rhumerus 15.6409 59.7282 -20.1942
rradius 104.217
rwrist 9.41227
rhand -35.5391 42.1102
rfingers 7.12502
rthumb -8.66503 12.308
lclavicle 3.6477e-014 8.74653e-015
lhumerus 18.936 -51.2971 2.3939
lradius 105.136
lwrist 24.687
lhand -25.2096 -339.218
lfingers 7.12502
lthumb 1.30909 1490.76
rfemur -48.7581 -21.5371 25.5828
rtibia 79.3755
rfoot -9.88931 -6.72953
rtoes 1.1362
lfemur -26.0888 18.0736 -10.1434
ltibia 61.126
lfoot -19.3154 0.0197057
ltoes -22.1345
3382
root -1.94732 14.249 7.39576 -176.02 18.4303 -539.948
lowerback 6.25079 2.09019 -3.64408
upperback -4.58382 2.46202 -1.32759
thorax -8.44568 1.4198 0.298931
lowerneck -8.56919 -13.7626 -12.6204
upperneck 9.35962 -19.0443 17.9086
head 7.27926 -8.44026 5.71537
rclavicle 6.57729e-014 1.27222e-014
rhumerus 14.3981 61.0885 -21.6152
rradius 104.84
rwrist 10.5272
rhand -35.7499 42.7065
rfingers 7.12502
rthumb -8.86848 12.9128
lclavicle 6.57729e-014 1.27222e-014
lhumerus 19.0793 -53.2819 2.50675
lradius 106.672
lwrist 21.9671
lhand -26.0267 -342.146
lfingers 7.12502
lthumb 0.519972 1487.83
rfemur -47.9354 -20.4128 23.776
rtibia 78.2279
rfoot -11.3369 -8.36903
rtoes 2.62176
lfemur -26.0368 18.0461 -9.9351
ltibia 61.0707
lfoot -19.344 -0.113556
ltoes -22.3356
